<?xml version="1.0" encoding="iso-8859-1"?>
<!-- Generator: Adobe Illustrator 19.0.0, SVG Export Plug-In . SVG Version: 6.00 Build 0)  -->
<svg version="1.1" id="Layer_1" xmlns="http://www.w3.org/2000/svg" xmlns:xlink="http://www.w3.org/1999/xlink" x="0px" y="0px"
	 viewBox="0 0 512 512" style="enable-background:new 0 0 512 512;" xml:space="preserve">
<g>
	<path style="fill:#71C386;" d="M70.61,141.241c-5.297,0-8.828-3.531-8.828-8.828V8.828C61.782,3.531,65.313,0,70.61,0
		c5.297,0,8.828,3.531,8.828,8.828v123.586C79.437,137.71,75.906,141.241,70.61,141.241"/>
	<path style="fill:#71C386;" d="M97.093,44.138c-2.648,0-4.414-0.883-6.179-2.648L70.61,21.186L50.306,41.49
		c-3.531,3.531-8.828,3.531-12.359,0c-3.531-3.531-3.531-8.828,0-12.359L64.43,2.648c3.531-3.531,8.828-3.531,12.359,0
		l26.483,26.483c3.531,3.531,3.531,8.828,0,12.359C101.506,43.255,99.741,44.138,97.093,44.138"/>
	<path style="fill:#71C386;" d="M70.61,141.241c-2.648,0-4.414-0.883-6.179-2.648L37.948,112.11c-3.531-3.531-3.531-8.828,0-12.359
		c3.531-3.531,8.828-3.531,12.359,0l20.303,20.303l20.303-20.303c3.531-3.531,8.828-3.531,12.359,0
		c3.531,3.531,3.531,8.828,0,12.359l-26.483,26.483C75.024,140.359,73.258,141.241,70.61,141.241"/>
</g>
<path style="fill:#FDC794;" d="M476.679,335.448V229.517c0-16.772-14.124-35.31-30.897-35.31s-30.897,17.655-30.897,34.428v-43.255
	c0-16.772-14.124-35.31-30.897-35.31s-30.897,18.538-30.897,35.31v61.793V44.138c0-16.772-14.124-35.31-30.897-35.31
	c-16.772,0-30.897,18.538-30.897,35.31v26.483c0-16.772-14.124-35.31-30.897-35.31s-30.897,18.538-30.897,35.31v220.69
	c0-24.717-21.186-74.152-44.138-97.103c-19.421-19.421-74.152-6.179-44.138,35.31c21.186,29.131,35.31,90.924,35.31,123.586
	c0,78.566,61.793,105.931,61.793,105.931V512h211.862v-52.966l0,0C478.444,421.076,476.679,422.841,476.679,335.448"/>
<g>
	<path style="fill:#F9A671;" d="M353.093,450.207H326.61c-5.297,0-8.828-3.531-8.828-8.828s3.531-8.828,8.828-8.828h26.483
		c5.297,0,8.828,3.531,8.828,8.828S358.389,450.207,353.093,450.207"/>
	<path style="fill:#F9A671;" d="M361.92,485.517h-44.138c-5.297,0-8.828-3.531-8.828-8.828s3.531-8.828,8.828-8.828h44.138
		c5.297,0,8.828,3.531,8.828,8.828S367.217,485.517,361.92,485.517"/>
	<path style="fill:#F9A671;" d="M291.299,256c-5.297,0-8.828-3.531-8.828-8.828V61.793c0-5.297,3.531-8.828,8.828-8.828
		c5.297,0,8.828,3.531,8.828,8.828v185.379C300.127,252.469,296.596,256,291.299,256"/>
	<path style="fill:#F9A671;" d="M353.093,264.828c-5.297,0-8.828-3.531-8.828-8.828v-88.276c0-5.297,3.531-8.828,8.828-8.828
		s8.828,3.531,8.828,8.828V256C361.92,261.297,358.389,264.828,353.093,264.828"/>
	<path style="fill:#F9A671;" d="M414.886,282.483c-5.297,0-8.828-3.531-8.828-8.828V220.69c0-5.297,3.531-8.828,8.828-8.828
		s8.828,3.531,8.828,8.828v52.966C423.713,278.952,420.182,282.483,414.886,282.483"/>
</g>
<g>
</g>
<g>
</g>
<g>
</g>
<g>
</g>
<g>
</g>
<g>
</g>
<g>
</g>
<g>
</g>
<g>
</g>
<g>
</g>
<g>
</g>
<g>
</g>
<g>
</g>
<g>
</g>
<g>
</g>
</svg>
