<?xml version="1.0" encoding="iso-8859-1"?>
<!-- Generator: Adobe Illustrator 19.0.0, SVG Export Plug-In . SVG Version: 6.00 Build 0)  -->
<svg version="1.1" id="Layer_1" xmlns="http://www.w3.org/2000/svg" xmlns:xlink="http://www.w3.org/1999/xlink" x="0px" y="0px"
	 viewBox="0 0 512 512" style="enable-background:new 0 0 512 512;" xml:space="preserve">
<g transform="translate(0 -1)">
	<g>
		<g>
			<path d="M89.306,41.848c1.692,1.692,3.914,2.543,6.135,2.543s4.443-0.85,6.135-2.543c3.393-3.393,3.393-8.878,0-12.271
				L75.552,3.552c-0.798-0.807-1.762-1.441-2.829-1.883c-2.117-0.876-4.513-0.876-6.63,0c-1.067,0.443-2.031,1.076-2.829,1.883
				L37.239,29.577c-3.393,3.393-3.393,8.878,0,12.271c3.393,3.393,8.878,3.393,12.271,0L60.73,30.627v79.594L49.509,99.001
				c-3.393-3.393-8.878-3.393-12.271,0c-3.393,3.393-3.393,8.878,0,12.271l26.025,26.025c0.798,0.807,1.762,1.441,2.829,1.883
				c1.059,0.434,2.187,0.668,3.315,0.668c1.128,0,2.256-0.234,3.315-0.668c1.067-0.443,2.031-1.076,2.829-1.883l26.025-26.025
				c3.393-3.393,3.393-8.878,0-12.271c-3.393-3.393-8.878-3.393-12.271,0l-11.221,11.221V30.627L89.306,41.848z"/>
			<path d="M477.29,347.641l-0.017-121.014c0-20.48-16.722-43.39-39.103-43.39c-8.218,0-15.577,2.985-21.625,7.749l0.009-7.749
				c0-20.532-16.705-43.494-39.06-43.494c-8.192,0-15.629,3.089-21.756,8.001V44.39c0-20.48-16.705-43.39-39.06-43.39
				c-9.173,0-18.206,3.992-25.435,11.229c-6.404,6.413-10.856,14.805-12.661,23.491c-6.292-5.311-14.041-8.687-22.615-8.687
				c-22.337,0-39.034,22.91-39.034,43.39l-0.035,157.739c-7.828-16.115-17.764-31.562-28.594-42.383
				c-14.084-14.058-41.802-15.048-57.04-2.057c-4.964,4.226-19.595,20.176,0.486,47.98c18.614,25.808,33.063,83.768,33.063,116.415
				c0,69.337,45.134,100.656,60.798,109.429v46.774c0,4.799,3.879,8.678,8.678,8.678H442.56c4.79,0,8.669-3.879,8.678-8.669
				l0.061-49.326C477.428,420.016,477.42,415.894,477.29,347.641z M321.069,426.22h26.034c4.799,0,8.678,3.879,8.678,8.678
				c0,4.799-3.879,8.678-8.678,8.678h-26.034c-4.799,0-8.678-3.879-8.678-8.678C312.391,430.099,316.27,426.22,321.069,426.22z
				 M355.781,478.288h-43.39c-4.799,0-8.678-3.879-8.678-8.678s3.879-8.678,8.678-8.678h43.39c4.799,0,8.678,3.879,8.678,8.678
				S360.58,478.288,355.781,478.288z"/>
		</g>
	</g>
</g>
<g>
</g>
<g>
</g>
<g>
</g>
<g>
</g>
<g>
</g>
<g>
</g>
<g>
</g>
<g>
</g>
<g>
</g>
<g>
</g>
<g>
</g>
<g>
</g>
<g>
</g>
<g>
</g>
<g>
</g>
</svg>
