<?xml version="1.0" encoding="iso-8859-1"?>
<!-- Generator: Adobe Illustrator 19.0.0, SVG Export Plug-In . SVG Version: 6.00 Build 0)  -->
<svg version="1.1" id="Layer_1" xmlns="http://www.w3.org/2000/svg" xmlns:xlink="http://www.w3.org/1999/xlink" x="0px" y="0px"
	 viewBox="0 0 512 512" style="enable-background:new 0 0 512 512;" xml:space="preserve">
<path style="fill:#D6D6D6;" d="M401.392,235.528H432c44,0,80,35.936,80,79.872v15.968c0,43.92-36,79.872-80,79.872H80
	c-44,0-80-35.936-80-79.872V315.4c0-40.96,31.424-74.592,71.328-78.992C70.544,230.888,70,225.288,70,219.56
	c0-65.616,53.28-118.8,118.992-118.8c50.464,0,93.488,31.424,110.8,75.68c0,0,26.672-12.24,60.016-0.448
	C401.264,190.664,401.392,235.528,401.392,235.528z"/>
<polygon style="fill:#E50914;" points="144.272,299.12 180.704,261.968 180.704,351.616 214.688,351.616 214.688,261.968 
	251.12,299.12 275.384,275.456 197.696,196.256 120.008,275.456 "/>
<g>
</g>
<g>
</g>
<g>
</g>
<g>
</g>
<g>
</g>
<g>
</g>
<g>
</g>
<g>
</g>
<g>
</g>
<g>
</g>
<g>
</g>
<g>
</g>
<g>
</g>
<g>
</g>
<g>
</g>
</svg>
